<?xml version="1.0" encoding="UTF-8" standalone="no"?>
<!DOCTYPE svg PUBLIC "-//W3C//DTD SVG 1.1//EN" "http://www.w3.org/Graphics/SVG/1.1/DTD/svg11.dtd">
<svg width="100%" height="100%" viewBox="0 0 96 96" version="1.1" xmlns="http://www.w3.org/2000/svg" xmlns:xlink="http://www.w3.org/1999/xlink" xml:space="preserve" xmlns:serif="http://www.serif.com/" style="fill-rule:evenodd;clip-rule:evenodd;stroke-linejoin:round;stroke-miterlimit:2;">
    <g transform="matrix(0.519378,0,0,0.519378,43.5734,23.1007)">
        <path d="M23.813,18.362C29.848,18.996 55.43,19.475 63.18,18.459C65.01,18.22 65.359,20.002 65.447,22.364C65.577,25.859 64.768,30.623 64.359,31.992C63.607,34.507 60.424,33.971 59.988,32.104C59.747,31.07 59.694,29.129 59.644,27.918C59.597,26.774 58.485,25.776 57.339,25.632C53.908,25.201 39.062,25.332 39.062,25.332L39.062,45.465C39.062,45.465 50.311,45.893 53.177,45.465C54.499,45.267 55.937,44.193 56.257,42.895C56.88,40.369 57.977,39.267 59.005,39.299C61.142,39.365 61.549,42.342 61.367,42.691C60.138,45.049 60.753,56.435 61.274,56.957C61.436,57.119 60.788,59.723 58.691,59.584C57.702,59.519 56.538,59.038 56.336,57.306C55.986,54.317 55.081,53.167 53.303,52.692C50.424,51.923 39.061,52.692 39.061,52.692L39.061,72.749C39.061,72.749 44.909,75.901 57.671,72.749C62.657,71.517 64.438,67.339 66.513,66.33C67.725,65.741 69.873,65.79 70.078,67.122C70.851,72.148 63.625,81.177 56.253,81.177C48.88,81.177 32.495,79.613 27.4,81.222C26.433,81.527 23.537,80.92 23.537,78.786C23.537,76.43 26.461,76.032 27.062,75.991C28.771,75.876 29.381,74.193 29.381,72.843C29.381,72.843 29.84,35.471 29.381,27.28C29.26,25.123 28.099,23.999 26.622,23.7C25.559,23.484 24.365,23.729 23.415,23.401C21.64,22.788 21.14,21.228 21.804,19.772C22.186,18.933 22.815,18.257 23.813,18.362ZM7.226,62.586C7.226,62.586 6.312,71.382 5.536,72.383C0.831,78.449 -7.06,82.217 -20.43,82.217C-39.033,82.217 -53.824,68.253 -53.061,49.587C-52.326,31.592 -38.44,16.956 -20.43,16.956C-4.986,16.956 -1.331,22.95 -0.515,22.134C0.23,21.389 0.919,21.108 1.546,21.156C2.645,21.24 3.553,22.334 4.236,23.709C4.468,24.177 7.593,36.753 6.059,38.287C3.599,40.748 0.985,40.2 0.268,38.634C-3.613,30.152 -10.671,24.628 -19.311,24.574C-33.798,24.482 -40.883,32.192 -40.883,49.587C-40.883,60.71 -32.992,74.76 -19.145,74.99C-9.028,75.158 -1.866,70.033 1.857,62.29C3.535,58.801 6.699,62.079 7.226,62.586ZM-49.995,3.585C-51.703,3.585 -53.089,2.198 -53.089,0.49C-53.089,-1.218 -51.703,-2.604 -49.995,-2.604L67.04,-2.604C68.748,-2.604 70.135,-1.218 70.135,0.49C70.135,2.198 68.748,3.585 67.04,3.585L-49.995,3.585ZM-49.995,98.486C-51.703,98.486 -53.089,97.099 -53.089,95.391C-53.089,93.683 -51.703,92.296 -49.995,92.296L67.04,92.296C68.748,92.296 70.135,93.683 70.135,95.391C70.135,97.099 68.748,98.486 67.04,98.486L-49.995,98.486Z"/>
    </g>
</svg>
