<?xml version="1.0" encoding="UTF-8" standalone="no"?>
<!DOCTYPE svg PUBLIC "-//W3C//DTD SVG 1.1//EN" "http://www.w3.org/Graphics/SVG/1.1/DTD/svg11.dtd">
<svg width="100%" height="100%" viewBox="0 0 448 448" version="1.1" xmlns="http://www.w3.org/2000/svg" xmlns:xlink="http://www.w3.org/1999/xlink" xml:space="preserve" xmlns:serif="http://www.serif.com/" style="fill-rule:evenodd;clip-rule:evenodd;stroke-linejoin:round;stroke-miterlimit:2;">
    <g transform="matrix(1,0,0,1,0,-32)">
        <path d="M64,32C28.7,32 0,60.7 0,96L0,416C0,451.3 28.7,480 64,480L162.2,480L162.2,334.2L109.4,334.2L109.4,256L162.2,256L162.2,222.3C162.2,135.2 201.6,94.8 287.2,94.8C303.4,94.8 331.4,98 342.9,101.2L342.9,172C336.9,171.4 326.4,171 313.3,171C271.3,171 255.1,186.9 255.1,228.2L255.1,256L338.7,256L324.3,334.2L255,334.2L255,480L384,480C419.3,480 448,451.3 448,416L448,96C448,60.7 419.3,32 384,32L64,32Z" style="fill:white;fill-rule:nonzero;"/>
    </g>
</svg>
