<?xml version="1.0" encoding="UTF-8" standalone="no"?>
<!DOCTYPE svg PUBLIC "-//W3C//DTD SVG 1.1//EN" "http://www.w3.org/Graphics/SVG/1.1/DTD/svg11.dtd">
<svg width="100%" height="100%" viewBox="0 0 512 512" version="1.1" xmlns="http://www.w3.org/2000/svg" xmlns:xlink="http://www.w3.org/1999/xlink" xml:space="preserve" xmlns:serif="http://www.serif.com/" style="fill-rule:evenodd;clip-rule:evenodd;stroke-linejoin:round;stroke-miterlimit:2;">
    <path d="M361.5,1.2C366.5,3.3 370.1,7.8 371.1,13.1L391,121L498.9,140.8C504.2,141.8 508.7,145.4 510.8,150.4C512.9,155.4 512.3,161.1 509.2,165.6L446.9,256L509.2,346.3C512.3,350.8 512.9,356.5 510.8,361.5C508.7,366.5 504.2,370.1 498.9,371.1L391,391L371.1,498.9C370.1,504.2 366.5,508.7 361.5,510.8C356.5,512.9 350.8,512.3 346.3,509.2L256,446.9L165.7,509.2C161.2,512.3 155.5,512.9 150.5,510.8C145.5,508.7 141.9,504.2 140.9,498.9L121,391L13.1,371.1C7.8,370.1 3.3,366.5 1.2,361.5C-0.9,356.5 -0.3,350.8 2.8,346.3L65.1,256L2.8,165.7C-0.3,161.2 -0.9,155.5 1.2,150.5C3.3,145.5 7.8,141.9 13.1,140.9L121,121L140.9,13.1C141.9,7.8 145.5,3.3 150.5,1.2C155.5,-0.9 161.2,-0.3 165.7,2.8L256,65.1L346.3,2.8C350.8,-0.3 356.5,-0.9 361.5,1.2ZM400,256C400,177.004 334.996,112 256,112C177.004,112 112,177.004 112,256C112,334.996 177.004,400 256,400C334.996,400 400,334.996 400,256ZM142,256C142,192.9 193.6,142 257,142C260.3,142 263.5,142.1 266.7,142.4C273.7,143 279.5,148.1 281,155C282.5,161.9 279.3,168.9 273.2,172.4C250.3,185.2 234.9,209.5 234.9,237.2C234.9,278.2 268.5,311.7 310.3,311.7C314.7,311.7 319.1,311.3 323.3,310.6C330.2,309.4 337.1,312.9 340.3,319.2C343.5,325.5 342.2,333.1 337.1,337.9C316.4,357.8 288.1,370.1 257,370.1C193.6,370.1 142,319.2 142,256.1L142,256Z" style="fill:white;"/>
</svg>
